G75*
%MOIN*%
%OFA0B0*%
%FSLAX25Y25*%
%IPPOS*%
%LPD*%
%AMOC8*
5,1,8,0,0,1.08239X$1,22.5*
%
%ADD10C,0.02400*%
%ADD11C,0.07087*%
%ADD12C,0.02181*%
%ADD13C,0.01000*%
D10*
X0053508Y0034571D03*
X0056657Y0034571D03*
X0059807Y0034571D03*
X0059807Y0037720D03*
X0056657Y0037720D03*
X0053508Y0037720D03*
D11*
X0015280Y0037209D02*
X0008193Y0037209D01*
X0008193Y0027209D02*
X0015280Y0027209D01*
X0106618Y0025634D02*
X0113705Y0025634D01*
X0113705Y0035634D02*
X0106618Y0035634D01*
D12*
X0090083Y0025516D03*
X0063705Y0030634D03*
X0060949Y0014098D03*
X0074335Y0048350D03*
X0044413Y0048744D03*
D13*
X0013416Y0003500D02*
X0107694Y0003500D01*
X0105792Y0005402D01*
X0104724Y0007979D01*
X0104724Y0010769D01*
X0105792Y0013346D01*
X0107764Y0015318D01*
X0110341Y0016386D01*
X0113131Y0016386D01*
X0115708Y0015318D01*
X0117610Y0013416D01*
X0117610Y0022973D01*
X0116335Y0021697D01*
X0114628Y0020991D01*
X0105694Y0020991D01*
X0103988Y0021697D01*
X0102682Y0023004D01*
X0101975Y0024710D01*
X0101975Y0026557D01*
X0102682Y0028264D01*
X0103988Y0029570D01*
X0105694Y0030277D01*
X0114628Y0030277D01*
X0116335Y0029570D01*
X0117610Y0028295D01*
X0117610Y0048639D01*
X0115708Y0046737D01*
X0113131Y0045669D01*
X0110341Y0045669D01*
X0107764Y0046737D01*
X0105792Y0048709D01*
X0104724Y0051286D01*
X0104724Y0054076D01*
X0105792Y0056653D01*
X0107694Y0058555D01*
X0013416Y0058555D01*
X0015318Y0056653D01*
X0016386Y0054076D01*
X0016386Y0051286D01*
X0015318Y0048709D01*
X0013346Y0046737D01*
X0010769Y0045669D01*
X0007979Y0045669D01*
X0005402Y0046737D01*
X0003500Y0048639D01*
X0003500Y0013416D01*
X0005402Y0015318D01*
X0007979Y0016386D01*
X0010769Y0016386D01*
X0013346Y0015318D01*
X0015318Y0013346D01*
X0016386Y0010769D01*
X0016386Y0007979D01*
X0015318Y0005402D01*
X0013416Y0003500D01*
X0014412Y0004496D02*
X0106698Y0004496D01*
X0105754Y0005494D02*
X0015356Y0005494D01*
X0015770Y0006493D02*
X0105340Y0006493D01*
X0104927Y0007491D02*
X0016184Y0007491D01*
X0016386Y0008490D02*
X0104724Y0008490D01*
X0104724Y0009488D02*
X0016386Y0009488D01*
X0016386Y0010487D02*
X0104724Y0010487D01*
X0105021Y0011485D02*
X0016089Y0011485D01*
X0015675Y0012484D02*
X0059466Y0012484D01*
X0060041Y0011908D02*
X0061856Y0011908D01*
X0063139Y0013191D01*
X0063139Y0015006D01*
X0062549Y0015596D01*
X0062549Y0027215D01*
X0063777Y0028443D01*
X0064612Y0028443D01*
X0065895Y0029727D01*
X0065895Y0031541D01*
X0064612Y0032824D01*
X0062797Y0032824D01*
X0061514Y0031541D01*
X0061514Y0030706D01*
X0059349Y0028541D01*
X0059349Y0015596D01*
X0058758Y0015006D01*
X0058758Y0013191D01*
X0060041Y0011908D01*
X0058758Y0013482D02*
X0015182Y0013482D01*
X0014184Y0014481D02*
X0058758Y0014481D01*
X0059232Y0015479D02*
X0012958Y0015479D01*
X0005790Y0015479D02*
X0003500Y0015479D01*
X0003500Y0014481D02*
X0004564Y0014481D01*
X0003566Y0013482D02*
X0003500Y0013482D01*
X0003500Y0016478D02*
X0059349Y0016478D01*
X0059349Y0017476D02*
X0003500Y0017476D01*
X0003500Y0018475D02*
X0059349Y0018475D01*
X0059349Y0019473D02*
X0003500Y0019473D01*
X0003500Y0020472D02*
X0059349Y0020472D01*
X0059349Y0021470D02*
X0003500Y0021470D01*
X0003500Y0022469D02*
X0059349Y0022469D01*
X0059349Y0023467D02*
X0018105Y0023467D01*
X0017910Y0023272D02*
X0016203Y0022565D01*
X0007269Y0022565D01*
X0005563Y0023272D01*
X0004257Y0024578D01*
X0003550Y0026285D01*
X0003550Y0028132D01*
X0004257Y0029839D01*
X0005563Y0031145D01*
X0007269Y0031852D01*
X0016203Y0031852D01*
X0017910Y0031145D01*
X0019216Y0029839D01*
X0019923Y0028132D01*
X0019923Y0026285D01*
X0019216Y0024578D01*
X0017910Y0023272D01*
X0019103Y0024466D02*
X0059349Y0024466D01*
X0059349Y0025464D02*
X0019583Y0025464D01*
X0019923Y0026463D02*
X0059349Y0026463D01*
X0059349Y0027461D02*
X0019923Y0027461D01*
X0019787Y0028460D02*
X0059349Y0028460D01*
X0060266Y0029458D02*
X0019374Y0029458D01*
X0018598Y0030457D02*
X0061265Y0030457D01*
X0061514Y0031455D02*
X0017161Y0031455D01*
X0006312Y0031455D02*
X0003500Y0031455D01*
X0003500Y0030457D02*
X0004874Y0030457D01*
X0004099Y0029458D02*
X0003500Y0029458D01*
X0003500Y0028460D02*
X0003685Y0028460D01*
X0003550Y0027461D02*
X0003500Y0027461D01*
X0003500Y0026463D02*
X0003550Y0026463D01*
X0003500Y0025464D02*
X0003890Y0025464D01*
X0003500Y0024466D02*
X0004369Y0024466D01*
X0003500Y0023467D02*
X0005368Y0023467D01*
X0003500Y0032454D02*
X0062427Y0032454D01*
X0063705Y0030634D02*
X0060949Y0027878D01*
X0060949Y0014098D01*
X0062666Y0015479D02*
X0108153Y0015479D01*
X0106927Y0014481D02*
X0063139Y0014481D01*
X0063139Y0013482D02*
X0105928Y0013482D01*
X0105435Y0012484D02*
X0062432Y0012484D01*
X0062549Y0016478D02*
X0117610Y0016478D01*
X0117610Y0017476D02*
X0062549Y0017476D01*
X0062549Y0018475D02*
X0117610Y0018475D01*
X0117610Y0019473D02*
X0062549Y0019473D01*
X0062549Y0020472D02*
X0117610Y0020472D01*
X0117610Y0021470D02*
X0115786Y0021470D01*
X0117106Y0022469D02*
X0117610Y0022469D01*
X0117610Y0028460D02*
X0117445Y0028460D01*
X0117610Y0029458D02*
X0116447Y0029458D01*
X0117610Y0030457D02*
X0091683Y0030457D01*
X0091683Y0031455D02*
X0117610Y0031455D01*
X0117610Y0032454D02*
X0091683Y0032454D01*
X0091683Y0033452D02*
X0117610Y0033452D01*
X0117610Y0034451D02*
X0091683Y0034451D01*
X0091683Y0035449D02*
X0117610Y0035449D01*
X0117610Y0036448D02*
X0091683Y0036448D01*
X0091683Y0037446D02*
X0117610Y0037446D01*
X0117610Y0038445D02*
X0091683Y0038445D01*
X0091683Y0039443D02*
X0117610Y0039443D01*
X0117610Y0040442D02*
X0091683Y0040442D01*
X0091683Y0041440D02*
X0117610Y0041440D01*
X0117610Y0042439D02*
X0091683Y0042439D01*
X0091683Y0043437D02*
X0117610Y0043437D01*
X0117610Y0044436D02*
X0091683Y0044436D01*
X0091683Y0044993D02*
X0091723Y0045040D01*
X0091683Y0045648D01*
X0091683Y0046257D01*
X0091639Y0046301D01*
X0091635Y0046362D01*
X0091176Y0046764D01*
X0090745Y0047194D01*
X0090684Y0047194D01*
X0088027Y0049519D01*
X0087596Y0049950D01*
X0087534Y0049950D01*
X0087488Y0049991D01*
X0086880Y0049950D01*
X0075833Y0049950D01*
X0075242Y0050541D01*
X0073427Y0050541D01*
X0072144Y0049258D01*
X0072144Y0047443D01*
X0073427Y0046160D01*
X0075242Y0046160D01*
X0075833Y0046750D01*
X0086332Y0046750D01*
X0088483Y0044868D01*
X0088483Y0027014D01*
X0087892Y0026423D01*
X0087892Y0024608D01*
X0089175Y0023325D01*
X0090990Y0023325D01*
X0092273Y0024608D01*
X0092273Y0026423D01*
X0091683Y0027014D01*
X0091683Y0044993D01*
X0091697Y0045434D02*
X0117610Y0045434D01*
X0117610Y0046433D02*
X0114975Y0046433D01*
X0116403Y0047432D02*
X0117610Y0047432D01*
X0117610Y0048430D02*
X0117401Y0048430D01*
X0108498Y0046433D02*
X0091554Y0046433D01*
X0090083Y0045594D02*
X0090083Y0025516D01*
X0092273Y0025464D02*
X0101975Y0025464D01*
X0102076Y0024466D02*
X0092131Y0024466D01*
X0091132Y0023467D02*
X0102490Y0023467D01*
X0103217Y0022469D02*
X0062549Y0022469D01*
X0062549Y0021470D02*
X0104536Y0021470D01*
X0101975Y0026463D02*
X0092234Y0026463D01*
X0091683Y0027461D02*
X0102349Y0027461D01*
X0102877Y0028460D02*
X0091683Y0028460D01*
X0091683Y0029458D02*
X0103876Y0029458D01*
X0088483Y0029458D02*
X0065627Y0029458D01*
X0064629Y0028460D02*
X0088483Y0028460D01*
X0088483Y0027461D02*
X0062795Y0027461D01*
X0062549Y0026463D02*
X0087932Y0026463D01*
X0087892Y0025464D02*
X0062549Y0025464D01*
X0062549Y0024466D02*
X0088035Y0024466D01*
X0089033Y0023467D02*
X0062549Y0023467D01*
X0065895Y0030457D02*
X0088483Y0030457D01*
X0088483Y0031455D02*
X0065895Y0031455D01*
X0064983Y0032454D02*
X0088483Y0032454D01*
X0088483Y0033452D02*
X0003500Y0033452D01*
X0003500Y0034451D02*
X0088483Y0034451D01*
X0088483Y0035449D02*
X0003500Y0035449D01*
X0003500Y0036448D02*
X0088483Y0036448D01*
X0088483Y0037446D02*
X0003500Y0037446D01*
X0003500Y0038445D02*
X0088483Y0038445D01*
X0088483Y0039443D02*
X0003500Y0039443D01*
X0003500Y0040442D02*
X0088483Y0040442D01*
X0088483Y0041440D02*
X0003500Y0041440D01*
X0003500Y0042439D02*
X0088483Y0042439D01*
X0088483Y0043437D02*
X0003500Y0043437D01*
X0003500Y0044436D02*
X0088483Y0044436D01*
X0087836Y0045434D02*
X0003500Y0045434D01*
X0003500Y0046433D02*
X0006135Y0046433D01*
X0004707Y0047432D02*
X0003500Y0047432D01*
X0003500Y0048430D02*
X0003709Y0048430D01*
X0012613Y0046433D02*
X0073154Y0046433D01*
X0072156Y0047432D02*
X0014041Y0047432D01*
X0015039Y0048430D02*
X0072144Y0048430D01*
X0072315Y0049429D02*
X0015616Y0049429D01*
X0016030Y0050427D02*
X0073313Y0050427D01*
X0075356Y0050427D02*
X0105080Y0050427D01*
X0105494Y0049429D02*
X0088131Y0049429D01*
X0089272Y0048430D02*
X0106071Y0048430D01*
X0107070Y0047432D02*
X0090413Y0047432D01*
X0090083Y0045594D02*
X0086933Y0048350D01*
X0074335Y0048350D01*
X0075515Y0046433D02*
X0086695Y0046433D01*
X0104724Y0051426D02*
X0016386Y0051426D01*
X0016386Y0052424D02*
X0104724Y0052424D01*
X0104724Y0053423D02*
X0016386Y0053423D01*
X0016243Y0054421D02*
X0104867Y0054421D01*
X0105281Y0055420D02*
X0015829Y0055420D01*
X0015416Y0056418D02*
X0105695Y0056418D01*
X0106556Y0057417D02*
X0014555Y0057417D01*
X0013556Y0058415D02*
X0107554Y0058415D01*
X0115320Y0015479D02*
X0117610Y0015479D01*
X0117610Y0014481D02*
X0116546Y0014481D01*
X0117544Y0013482D02*
X0117610Y0013482D01*
M02*
