G75*
%MOIN*%
%OFA0B0*%
%FSLAX25Y25*%
%IPPOS*%
%LPD*%
%AMOC8*
5,1,8,0,0,1.08239X$1,22.5*
%
%ADD10C,0.00945*%
%ADD11R,0.08465X0.06299*%
%ADD12C,0.02400*%
%ADD13R,0.04724X0.03150*%
%ADD14R,0.04331X0.03937*%
%ADD15R,0.07600X0.15000*%
%ADD16R,0.03150X0.04724*%
%ADD17C,0.07087*%
%ADD18R,0.07087X0.06299*%
%ADD19C,0.01000*%
%ADD20C,0.02181*%
%ADD21C,0.01600*%
D10*
X0052720Y0029925D02*
X0052720Y0031343D01*
X0052720Y0031343D01*
X0052720Y0029925D01*
X0052720Y0029925D01*
X0052720Y0030869D02*
X0052720Y0030869D01*
X0054689Y0031343D02*
X0054689Y0029925D01*
X0054689Y0031343D02*
X0054689Y0031343D01*
X0054689Y0029925D01*
X0054689Y0029925D01*
X0054689Y0030869D02*
X0054689Y0030869D01*
X0056657Y0031343D02*
X0056657Y0029925D01*
X0056657Y0031343D02*
X0056657Y0031343D01*
X0056657Y0029925D01*
X0056657Y0029925D01*
X0056657Y0030869D02*
X0056657Y0030869D01*
X0058626Y0031343D02*
X0058626Y0029925D01*
X0058626Y0031343D02*
X0058626Y0031343D01*
X0058626Y0029925D01*
X0058626Y0029925D01*
X0058626Y0030869D02*
X0058626Y0030869D01*
X0060594Y0031343D02*
X0060594Y0029925D01*
X0060594Y0031343D02*
X0060594Y0031343D01*
X0060594Y0029925D01*
X0060594Y0029925D01*
X0060594Y0030869D02*
X0060594Y0030869D01*
X0060594Y0040948D02*
X0060594Y0042366D01*
X0060594Y0042366D01*
X0060594Y0040948D01*
X0060594Y0040948D01*
X0060594Y0041892D02*
X0060594Y0041892D01*
X0058626Y0042366D02*
X0058626Y0040948D01*
X0058626Y0042366D02*
X0058626Y0042366D01*
X0058626Y0040948D01*
X0058626Y0040948D01*
X0058626Y0041892D02*
X0058626Y0041892D01*
X0056657Y0042366D02*
X0056657Y0040948D01*
X0056657Y0042366D02*
X0056657Y0042366D01*
X0056657Y0040948D01*
X0056657Y0040948D01*
X0056657Y0041892D02*
X0056657Y0041892D01*
X0054689Y0042366D02*
X0054689Y0040948D01*
X0054689Y0042366D02*
X0054689Y0042366D01*
X0054689Y0040948D01*
X0054689Y0040948D01*
X0054689Y0041892D02*
X0054689Y0041892D01*
X0052720Y0042366D02*
X0052720Y0040948D01*
X0052720Y0042366D02*
X0052720Y0042366D01*
X0052720Y0040948D01*
X0052720Y0040948D01*
X0052720Y0041892D02*
X0052720Y0041892D01*
D11*
X0056657Y0036146D03*
D12*
X0056657Y0037720D03*
X0053508Y0037720D03*
X0053508Y0034571D03*
X0056657Y0034571D03*
X0059807Y0034571D03*
X0059807Y0037720D03*
D13*
X0068941Y0034689D03*
X0076106Y0034689D03*
X0076106Y0027602D03*
X0068941Y0027602D03*
D14*
X0066539Y0014098D03*
X0073232Y0014098D03*
X0074650Y0041815D03*
X0067957Y0041815D03*
X0069925Y0048311D03*
X0063232Y0048311D03*
X0055752Y0048469D03*
X0049059Y0048469D03*
D15*
X0045890Y0018902D03*
X0023390Y0018902D03*
D16*
X0030752Y0038547D03*
X0037839Y0038547D03*
X0062917Y0055043D03*
X0070004Y0055043D03*
D17*
X0106618Y0035634D02*
X0113705Y0035634D01*
X0113705Y0025634D02*
X0106618Y0025634D01*
X0015280Y0027209D02*
X0008193Y0027209D01*
X0008193Y0037209D02*
X0015280Y0037209D01*
D18*
X0084177Y0034571D03*
X0095988Y0034571D03*
X0095988Y0023547D03*
X0084177Y0023547D03*
D19*
X0073232Y0023705D02*
X0068941Y0027602D01*
X0063705Y0030634D02*
X0060594Y0030634D01*
X0058587Y0030634D02*
X0058587Y0029453D01*
X0060161Y0027878D01*
X0112130Y0027878D01*
X0112130Y0018035D01*
X0057799Y0018035D01*
X0057799Y0027484D01*
X0056618Y0028665D01*
X0056618Y0030634D01*
X0058587Y0030634D01*
X0058587Y0030457D02*
X0056618Y0030457D01*
X0054650Y0030457D02*
X0052504Y0030457D01*
X0052681Y0030634D02*
X0054650Y0030634D01*
X0054650Y0027878D01*
X0055831Y0026697D01*
X0055831Y0010949D01*
X0048350Y0010949D01*
X0048350Y0027878D01*
X0052287Y0027878D01*
X0052287Y0030240D01*
X0052681Y0030634D01*
X0052287Y0029458D02*
X0054650Y0029458D01*
X0054650Y0028460D02*
X0052287Y0028460D01*
X0055066Y0027461D02*
X0048350Y0027461D01*
X0048350Y0026463D02*
X0055831Y0026463D01*
X0057799Y0026463D02*
X0112130Y0026463D01*
X0112130Y0027461D02*
X0057799Y0027461D01*
X0056824Y0028460D02*
X0059580Y0028460D01*
X0058587Y0029458D02*
X0056618Y0029458D01*
X0055831Y0025464D02*
X0048350Y0025464D01*
X0048350Y0024466D02*
X0055831Y0024466D01*
X0055831Y0023467D02*
X0048350Y0023467D01*
X0048350Y0022469D02*
X0055831Y0022469D01*
X0055831Y0021470D02*
X0048350Y0021470D01*
X0048350Y0020472D02*
X0055831Y0020472D01*
X0055831Y0019473D02*
X0048350Y0019473D01*
X0048350Y0018475D02*
X0055831Y0018475D01*
X0055831Y0017476D02*
X0048350Y0017476D01*
X0048350Y0016478D02*
X0055831Y0016478D01*
X0055831Y0015479D02*
X0048350Y0015479D01*
X0048350Y0014481D02*
X0055831Y0014481D01*
X0055831Y0013482D02*
X0048350Y0013482D01*
X0048350Y0012484D02*
X0055831Y0012484D01*
X0055831Y0011485D02*
X0048350Y0011485D01*
X0057799Y0018475D02*
X0112130Y0018475D01*
X0112130Y0019473D02*
X0057799Y0019473D01*
X0057799Y0020472D02*
X0112130Y0020472D01*
X0112130Y0021470D02*
X0057799Y0021470D01*
X0057799Y0022469D02*
X0112130Y0022469D01*
X0112130Y0023467D02*
X0057799Y0023467D01*
X0057799Y0024466D02*
X0112130Y0024466D01*
X0112130Y0025464D02*
X0057799Y0025464D01*
X0063311Y0032996D02*
X0062917Y0033390D01*
X0039295Y0033390D01*
X0037720Y0034965D01*
X0037720Y0041657D01*
X0045988Y0041657D01*
X0048744Y0038902D01*
X0063705Y0038902D01*
X0064886Y0037720D01*
X0078272Y0037720D01*
X0079453Y0038902D01*
X0111736Y0038902D01*
X0111736Y0032996D01*
X0063311Y0032996D01*
X0064161Y0038445D02*
X0037720Y0038445D01*
X0037720Y0039443D02*
X0048202Y0039443D01*
X0047204Y0040442D02*
X0037720Y0040442D01*
X0037720Y0041440D02*
X0046205Y0041440D01*
X0051500Y0044413D02*
X0052287Y0043626D01*
X0053075Y0044413D01*
X0054256Y0044413D01*
X0054689Y0043980D01*
X0054689Y0041657D01*
X0052720Y0041657D02*
X0052681Y0041697D01*
X0052681Y0043232D01*
X0052287Y0043626D01*
X0051500Y0044413D02*
X0032602Y0044413D01*
X0030752Y0042563D01*
X0030752Y0038547D01*
X0037720Y0037446D02*
X0111736Y0037446D01*
X0111736Y0038445D02*
X0078996Y0038445D01*
X0076303Y0037327D02*
X0074650Y0038980D01*
X0074650Y0041815D01*
X0067957Y0041815D02*
X0067799Y0041657D01*
X0060594Y0041657D01*
X0058626Y0041657D02*
X0058626Y0043587D01*
X0055831Y0046382D01*
X0055831Y0048390D01*
X0055752Y0048469D01*
X0063075Y0048469D01*
X0063232Y0048311D01*
X0062917Y0048626D01*
X0062917Y0055043D01*
X0070004Y0055043D02*
X0070004Y0048390D01*
X0069925Y0048311D01*
X0074295Y0048311D01*
X0074335Y0048350D01*
X0049059Y0048469D02*
X0048783Y0048744D01*
X0044413Y0048744D01*
X0037720Y0036448D02*
X0111736Y0036448D01*
X0111736Y0035449D02*
X0037720Y0035449D01*
X0038234Y0034451D02*
X0111736Y0034451D01*
X0111736Y0033452D02*
X0039233Y0033452D01*
X0060949Y0014098D02*
X0066539Y0014098D01*
X0073232Y0014098D02*
X0073232Y0023705D01*
D20*
X0063705Y0030634D03*
X0060949Y0014098D03*
X0090083Y0025516D03*
X0074335Y0048350D03*
X0044413Y0048744D03*
D21*
X0010555Y0022760D02*
X0020004Y0013311D01*
X0025516Y0013311D01*
X0030634Y0018429D01*
X0030634Y0041264D01*
X0021579Y0041264D01*
X0021185Y0040870D01*
X0021185Y0033783D01*
X0018823Y0031421D01*
X0010949Y0031421D01*
X0010555Y0031028D01*
X0010555Y0022760D01*
X0011034Y0022281D02*
X0030634Y0022281D01*
X0030634Y0023879D02*
X0010555Y0023879D01*
X0010555Y0025478D02*
X0030634Y0025478D01*
X0030634Y0027076D02*
X0010555Y0027076D01*
X0010555Y0028675D02*
X0030634Y0028675D01*
X0030634Y0030273D02*
X0010555Y0030273D01*
X0019273Y0031872D02*
X0030634Y0031872D01*
X0030634Y0033470D02*
X0020872Y0033470D01*
X0021185Y0035069D02*
X0030634Y0035069D01*
X0030634Y0036667D02*
X0021185Y0036667D01*
X0021185Y0038266D02*
X0030634Y0038266D01*
X0030634Y0039864D02*
X0021185Y0039864D01*
X0012633Y0020682D02*
X0030634Y0020682D01*
X0030634Y0019084D02*
X0014231Y0019084D01*
X0015830Y0017485D02*
X0029690Y0017485D01*
X0028091Y0015887D02*
X0017428Y0015887D01*
X0019027Y0014288D02*
X0026493Y0014288D01*
M02*
